<svg version="1" xmlns="http://www.w3.org/2000/svg" width="2730.667" height="2730.667" viewBox="0 0 2048.000000 2048.000000"><path d="M135.5 624.7c-34 4.2-60.8 15.7-85.2 36.5-23.8 20.4-40.3 48.6-47.5 81.1L.5 752.5v543l2.3 10.2c6.4 29.2 19.2 52.7 40.1 73.8 23.4 23.7 52.7 38.1 87.4 43 15.4 2.2 1772 2.2 1787.4 0 64.7-9.2 113.6-54 127.5-116.8l2.3-10.2v-543l-2.3-10.2c-10-45.2-37.8-81.3-78.6-102-10.6-5.3-28.7-11.5-41.1-14-8.6-1.7-45.4-1.8-898-1.9-488.9-.1-890.3.1-892 .3zm223 269.8c30.9 6.4 57.8 22 76.9 44.5 20.9 24.7 31.6 53.4 31.6 85 0 63.6-45 116.8-109.6 129.7-13.4 2.6-38.6 2.4-52.4-.6-27.6-5.9-50.8-18.7-70.1-38.8-17.5-18.2-27.4-36.2-33.7-61.2-2.4-9.7-2.6-12.3-2.6-29.6 0-18 .2-19.6 3.1-30.7 6.3-23.5 16.7-42 33.2-59.1 10.5-10.8 18.4-17.1 30.6-24 14.2-8.2 33.4-14.5 50-16.7 9.9-1.3 33.6-.4 43 1.5zm374.3.5c39.4 8 73.8 33.7 92 68.9 10.6 20.3 14.5 36.7 14.5 60.1 0 17.3-2 29.7-7.3 44.1-15.5 42.7-53.7 75.5-98.6 84.8-45.5 9.4-91.8-4.3-124.4-36.9-25.1-25.1-38.3-56.9-38.3-92.5.1-26.2 7.2-49.7 21.8-71.5 22.2-33.3 58.3-55 99-59.4 8.9-.9 31.3.3 41.3 2.4zm370.7-.5c53.8 11 94.3 50.3 106.1 103 2.4 10.9 2.9 35 1 47-7.5 45.5-38.6 84.2-81.8 101.4-52 20.9-110.6 8.3-149.2-32-17.8-18.5-28.8-39.3-34.3-65.2-2.5-11.4-2.5-38 0-49.4 5.5-25.8 16.3-46.5 33.9-64.9 22.2-23.1 50.1-37.4 81.3-41.4 9.9-1.3 33.5-.4 43 1.5zm828.5 311v34.5h-579v-69h579v34.5z"/></svg>